<svg width="174" height="103" viewBox="0 0 174 103" fill="none" xmlns="http://www.w3.org/2000/svg">
<path d="M24.2734 24.496V29.92H10.3054V38.512H21.0094V43.84H10.3054V58H3.58544V24.496H24.2734Z" fill="#C9DAF9"/>
<path d="M85.0711 39.128C85.0711 40.088 85.0071 40.952 84.8791 41.72H65.4391C65.5991 43.64 66.2711 45.144 67.4551 46.232C68.6391 47.32 70.0951 47.864 71.8231 47.864C74.3191 47.864 76.0951 46.792 77.1511 44.648H84.3991C83.6311 47.208 82.1591 49.32 79.9831 50.984C77.8071 52.616 75.1351 53.432 71.9671 53.432C69.4071 53.432 67.1031 52.872 65.0551 51.752C63.0391 50.6 61.4551 48.984 60.3031 46.904C59.1831 44.824 58.6231 42.424 58.6231 39.704C58.6231 36.952 59.1831 34.536 60.3031 32.456C61.4231 30.376 62.9911 28.776 65.0071 27.656C67.0231 26.536 69.3431 25.976 71.9671 25.976C74.4951 25.976 76.7511 26.52 78.7351 27.608C80.7511 28.696 82.3031 30.248 83.3911 32.264C84.5111 34.248 85.0711 36.536 85.0711 39.128ZM78.1111 37.208C78.0791 35.48 77.4551 34.104 76.2391 33.08C75.0231 32.024 73.5351 31.496 71.7751 31.496C70.1111 31.496 68.7031 32.008 67.5511 33.032C66.4311 34.024 65.7431 35.416 65.4871 37.208H78.1111ZM123 26.024C126.264 26.024 128.888 27.032 130.872 29.048C132.888 31.032 133.896 33.816 133.896 37.4V53H127.176V38.312C127.176 36.232 126.648 34.648 125.592 33.56C124.536 32.44 123.096 31.88 121.272 31.88C119.448 31.88 117.992 32.44 116.904 33.56C115.848 34.648 115.32 36.232 115.32 38.312V53H108.6V38.312C108.6 36.232 108.072 34.648 107.016 33.56C105.96 32.44 104.52 31.88 102.696 31.88C100.84 31.88 99.3681 32.44 98.2801 33.56C97.2241 34.648 96.6961 36.232 96.6961 38.312V53H89.9761V26.408H96.6961V29.624C97.5601 28.504 98.6641 27.624 100.008 26.984C101.384 26.344 102.888 26.024 104.52 26.024C106.6 26.024 108.456 26.472 110.088 27.368C111.72 28.232 112.984 29.48 113.88 31.112C114.744 29.576 115.992 28.344 117.624 27.416C119.288 26.488 121.08 26.024 123 26.024Z" fill="#C9DAF9"/>
<path d="M115.959 70.608C115.959 67.92 116.487 65.536 117.543 63.456C118.631 61.376 120.087 59.776 121.911 58.656C123.767 57.536 125.831 56.976 128.103 56.976C130.087 56.976 131.815 57.376 133.287 58.176C134.791 58.976 135.991 59.984 136.887 61.2V57.408H143.655V84H136.887V80.112C136.023 81.36 134.823 82.4 133.287 83.232C131.783 84.032 130.039 84.432 128.055 84.432C125.815 84.432 123.767 83.856 121.911 82.704C120.087 81.552 118.631 79.936 117.543 77.856C116.487 75.744 115.959 73.328 115.959 70.608ZM136.887 70.704C136.887 69.072 136.567 67.68 135.927 66.528C135.287 65.344 134.423 64.448 133.335 63.84C132.247 63.2 131.079 62.88 129.831 62.88C128.583 62.88 127.431 63.184 126.375 63.792C125.319 64.4 124.455 65.296 123.783 66.48C123.143 67.632 122.823 69.008 122.823 70.608C122.823 72.208 123.143 73.616 123.783 74.832C124.455 76.016 125.319 76.928 126.375 77.568C127.463 78.208 128.615 78.528 129.831 78.528C131.079 78.528 132.247 78.224 133.335 77.616C134.423 76.976 135.287 76.08 135.927 74.928C136.567 73.744 136.887 72.336 136.887 70.704ZM156.938 48.48V84H150.218V48.48H156.938ZM170.298 48.48V84H163.578V48.48H170.298Z" fill="#C9DAF9"/>
<path d="M28.688 57.408V84H21.92V80.64C21.056 81.792 19.92 82.704 18.512 83.376C17.136 84.016 15.632 84.336 14 84.336C11.92 84.336 10.08 83.904 8.48 83.04C6.88 82.144 5.616 80.848 4.688 79.152C3.792 77.424 3.344 75.376 3.344 73.008V57.408H10.064V72.048C10.064 74.16 10.592 75.792 11.648 76.944C12.704 78.064 14.144 78.624 15.968 78.624C17.824 78.624 19.28 78.064 20.336 76.944C21.392 75.792 21.92 74.16 21.92 72.048V57.408H28.688ZM51.7824 57.024C54.9504 57.024 57.5104 58.032 59.4624 60.048C61.4144 62.032 62.3904 64.816 62.3904 68.4V84H55.6704V69.312C55.6704 67.2 55.1424 65.584 54.0864 64.464C53.0304 63.312 51.5904 62.736 49.7664 62.736C47.9104 62.736 46.4384 63.312 45.3504 64.464C44.2944 65.584 43.7664 67.2 43.7664 69.312V84H37.0464V57.408H43.7664V60.72C44.6624 59.568 45.7984 58.672 47.1744 58.032C48.5824 57.36 50.1184 57.024 51.7824 57.024ZM68.7807 70.608C68.7807 67.92 69.3087 65.536 70.3647 63.456C71.4527 61.376 72.9247 59.776 74.7807 58.656C76.6367 57.536 78.7007 56.976 80.9727 56.976C82.7007 56.976 84.3487 57.36 85.9167 58.128C87.4847 58.864 88.7327 59.856 89.6607 61.104V48.48H96.4767V84H89.6607V80.064C88.8287 81.376 87.6607 82.432 86.1567 83.232C84.6527 84.032 82.9087 84.432 80.9247 84.432C78.6847 84.432 76.6367 83.856 74.7807 82.704C72.9247 81.552 71.4527 79.936 70.3647 77.856C69.3087 75.744 68.7807 73.328 68.7807 70.608ZM89.7087 70.704C89.7087 69.072 89.3887 67.68 88.7487 66.528C88.1087 65.344 87.2447 64.448 86.1567 63.84C85.0687 63.2 83.9007 62.88 82.6527 62.88C81.4047 62.88 80.2527 63.184 79.1967 63.792C78.1407 64.4 77.2767 65.296 76.6047 66.48C75.9647 67.632 75.6447 69.008 75.6447 70.608C75.6447 72.208 75.9647 73.616 76.6047 74.832C77.2767 76.016 78.1407 76.928 79.1967 77.568C80.2847 78.208 81.4367 78.528 82.6527 78.528C83.9007 78.528 85.0687 78.224 86.1567 77.616C87.2447 76.976 88.1087 76.08 88.7487 74.928C89.3887 73.744 89.7087 72.336 89.7087 70.704Z" fill="#C9DAF9" fill-opacity="0.75"/>
<path d="M51.9826 31.592H44.8786L50.0626 19.496H54.7186L51.9826 31.592Z" fill="#C9DAF9"/>
</svg>
