<svg width="30" height="30" viewBox="0 0 30 30" fill="none" xmlns="http://www.w3.org/2000/svg">
<path d="M0 12.5263C0 10.7935 0.327107 9.16511 0.98132 7.64107C1.63553 6.11703 2.52262 4.79133 3.64259 3.66396C4.76256 2.53659 6.08053 1.64429 7.59651 0.987076C9.1125 0.329861 10.7314 0.00083509 12.4533 0C15.0892 0 17.44 0.730704 19.5056 2.19211C21.5712 3.65352 23.0706 5.54291 24.0037 7.86028C24.149 8.2152 24.1544 8.57011 24.0199 8.92502C23.8854 9.27994 23.6413 9.52003 23.2877 9.64529C22.9556 9.74967 22.6393 9.71836 22.3387 9.55134C22.0382 9.38432 21.8252 9.1338 21.6999 8.79976C21.2017 7.54712 20.4857 6.44063 19.5517 5.48028C18.6177 4.51992 17.4969 3.77878 16.1893 3.25685V3.7579C16.1893 4.44685 15.9456 5.03685 15.4583 5.52788C14.9709 6.01891 14.3844 6.26401 13.6986 6.26317H11.208V8.76844C11.208 9.12336 11.0884 9.42107 10.8493 9.66157C10.6102 9.90208 10.3147 10.0219 9.96264 10.0211H7.47198V12.5263H8.71731C9.07015 12.5263 9.36613 12.6466 9.60523 12.8871C9.84433 13.1276 9.96347 13.4249 9.96264 13.779V16.2843H8.71731L2.73973 10.2716C2.67746 10.6474 2.62059 11.0232 2.56912 11.399C2.51764 11.7748 2.49149 12.1506 2.49066 12.5263C2.49066 15.0734 3.32628 17.2968 4.99751 19.1966C6.66874 21.0965 8.77003 22.1925 11.3014 22.4848C11.6335 22.5266 11.9087 22.6677 12.127 22.9082C12.3454 23.1487 12.4541 23.446 12.4533 23.8001C12.4525 24.1541 12.3329 24.4518 12.0946 24.6932C11.8564 24.9345 11.5712 25.0335 11.2391 24.9901C8.06351 24.6769 5.39643 23.3408 3.23786 20.9816C1.07929 18.6225 0 15.8041 0 12.5263ZM22.9141 23.5495L19.8007 20.4179C19.3649 20.6685 18.8979 20.8772 18.3997 21.0443C17.9016 21.2113 17.3724 21.2948 16.812 21.2948C15.2553 21.2948 13.9323 20.747 12.8431 19.6513C11.7538 18.5557 11.2088 17.2246 11.208 15.6579C11.2071 14.0913 11.7522 12.7606 12.8431 11.6658C13.934 10.571 15.257 10.0227 16.812 10.0211C18.367 10.0194 19.6903 10.5676 20.7821 11.6658C21.8738 12.7639 22.4184 14.0946 22.4159 15.6579C22.4159 16.2216 22.3329 16.754 22.1669 17.255C22.0008 17.7561 21.7933 18.2258 21.5442 18.6643L24.6575 21.7958C24.8858 22.0255 25 22.3178 25 22.6727C25 23.0276 24.8858 23.3199 24.6575 23.5495C24.4292 23.7792 24.1386 23.894 23.7858 23.894C23.433 23.894 23.1424 23.7792 22.9141 23.5495ZM16.812 18.7895C17.6837 18.7895 18.4205 18.4868 19.0224 17.8814C19.6243 17.2759 19.9253 16.5348 19.9253 15.6579C19.9253 14.7811 19.6243 14.0399 19.0224 13.4345C18.4205 12.8291 17.6837 12.5263 16.812 12.5263C15.9402 12.5263 15.2034 12.8291 14.6015 13.4345C13.9996 14.0399 13.6986 14.7811 13.6986 15.6579C13.6986 16.5348 13.9996 17.2759 14.6015 17.8814C15.2034 18.4868 15.9402 18.7895 16.812 18.7895Z" fill="white"/>
</svg>
