<svg width="30" height="30" viewBox="0 0 30 30" fill="none" xmlns="http://www.w3.org/2000/svg">
<path d="M1.39973 15.3999H2.79976V25.2C2.79976 26.7442 4.05559 28 5.59982 28H22.4002C23.9444 28 25.2002 26.7442 25.2002 25.2V15.3999H26.6003C26.8771 15.3998 27.1477 15.3177 27.3779 15.1638C27.6081 15.01 27.7875 14.7914 27.8934 14.5356C27.9994 14.2798 28.0271 13.9983 27.9731 13.7268C27.9191 13.4553 27.7858 13.2058 27.5901 13.01L14.9898 0.409905C14.7273 0.147443 14.3712 0 14 0C13.6288 0 13.2727 0.147443 13.0102 0.409905L0.40991 13.01C0.214173 13.2058 0.0808812 13.4553 0.0268854 13.7268C-0.0271103 13.9983 0.000614544 14.2798 0.106555 14.5356C0.212495 14.7914 0.391894 15.01 0.622073 15.1638C0.852252 15.3177 1.12288 15.3998 1.39973 15.3999ZM11.1999 25.2V18.1999H16.8001V25.2H11.1999ZM14 3.37934L22.4002 11.7794V18.1999L22.4016 25.2H19.6001V18.1999C19.6001 16.6557 18.3443 15.3999 16.8001 15.3999H11.1999C9.65571 15.3999 8.39988 16.6557 8.39988 18.1999V25.2H5.59982V11.7794L14 3.37934Z" fill="white"/>
</svg>
