<svg width="30" height="30" viewBox="0 0 30 30" fill="none" xmlns="http://www.w3.org/2000/svg">
<path d="M6.57 26.6634C6.39053 26.8346 6.17025 26.9462 5.93504 26.9848C5.69983 27.0235 5.45945 26.9878 5.24211 26.8818C5.02477 26.7758 4.8395 26.6039 4.70805 26.3864C4.5766 26.1689 4.50443 25.9147 4.5 25.6537V22.5768C3.83696 22.5768 3.20107 22.2878 2.73223 21.7732C2.26339 21.2587 2 20.5609 2 19.8332V10.2307C2 9.50309 2.26339 8.80525 2.73223 8.29073C3.20107 7.77621 3.83696 7.48715 4.5 7.48715H18.25C18.913 7.48715 19.5489 7.77621 20.0178 8.29073C20.4866 8.80525 20.75 9.50309 20.75 10.2307V19.8332C20.75 20.5609 20.4866 21.2587 20.0178 21.7732C19.5489 22.2878 18.913 22.5768 18.25 22.5768H12.0037L6.57 26.6634ZM7.625 22.4204C7.73887 22.4195 7.85068 22.3869 7.95 22.3258L10.8937 20.0788C11.1033 19.9189 11.3523 19.8332 11.6075 19.8332H17C17.3315 19.8332 17.6495 19.6887 17.8839 19.4315C18.1183 19.1742 18.25 18.8253 18.25 18.4615V11.6025C18.25 11.2387 18.1183 10.8898 17.8839 10.6325C17.6495 10.3753 17.3315 10.2307 17 10.2307H5.75C5.41848 10.2307 5.10054 10.3753 4.86612 10.6325C4.6317 10.8898 4.5 11.2387 4.5 11.6025V18.4615C4.5 19.2022 5.03625 19.8086 5.75 19.8332C6.2625 19.8552 6.63375 19.9471 6.805 20.1433C6.965 20.3271 6.97375 20.6371 7 21.227C7.00375 21.3134 7.00375 21.4698 7 21.7345C7 21.9165 7.06585 22.0909 7.18306 22.2195C7.30027 22.3482 7.45924 22.4204 7.625 22.4204ZM22 15.7398C21.9959 15.909 21.9959 16.0782 22 16.2474V15.7398ZM22 15.7398C22.025 15.15 22.035 14.8399 22.195 14.6561C22.3663 14.46 22.7375 14.368 23.25 14.3461C23.9638 14.3214 24.5 13.7151 24.5 12.9743V6.11536C24.5 5.75154 24.3683 5.40262 24.1339 5.14536C23.8995 4.8881 23.5815 4.74358 23.25 4.74358H12C11.6685 4.74358 11.3505 4.8881 11.1161 5.14536C10.8817 5.40262 10.75 5.75154 10.75 6.11536H8.25V4.74358C8.25 4.01593 8.51339 3.3181 8.98223 2.80357C9.45107 2.28905 10.087 2 10.75 2H24.5C25.163 2 25.7989 2.28905 26.2678 2.80357C26.7366 3.3181 27 4.01593 27 4.74358V14.3461C27 15.0737 26.7366 15.7716 26.2678 16.2861C25.7989 16.8006 25.163 17.0897 24.5 17.0897V20.1666C24.4956 20.4276 24.4234 20.6817 24.2919 20.8992C24.1605 21.1168 23.9752 21.2886 23.7579 21.3946C23.5406 21.5006 23.3002 21.5364 23.065 21.4977C22.8297 21.459 22.6095 21.3475 22.43 21.1762L22 20.8525V15.7398Z" fill="white"/>
</svg>
